HIERARCHY
ROOT Hips
{
	OFFSET -14.64140 90.27770 -84.91600
	CHANNELS 6 Xposition Yposition Zposition Zrotation Xrotation Yrotation
	JOINT Spine
	{
		OFFSET 0.00000 13.20850 -1.60436
		CHANNELS 3 Zrotation Xrotation Yrotation
		JOINT Spine1
		{
			OFFSET 0.00000 8.61716 0.00000
			CHANNELS 3 Zrotation Xrotation Yrotation
			JOINT Spine2
			{
				OFFSET 0.00000 8.61717 0.00000
				CHANNELS 3 Zrotation Xrotation Yrotation
				JOINT Spine3
				{
					OFFSET 0.00000 8.61717 0.00000
					CHANNELS 3 Zrotation Xrotation Yrotation
					JOINT Neck
					{
						OFFSET 0.00000 11.07920 1.10792
						CHANNELS 3 Zrotation Xrotation Yrotation
						JOINT Neck1
						{
							OFFSET 0.00000 7.08032 0.00000
							CHANNELS 3 Zrotation Xrotation Yrotation
							JOINT Head
							{
								OFFSET 0.00000 7.08031 0.00000
								CHANNELS 3 Zrotation Xrotation Yrotation
								End site
								{
									OFFSET 0.00000 0.00000 0.00000
								}
							}
						}
					}
					JOINT RightShoulder
					{
						OFFSET -0.01000 7.91373 5.19711
						CHANNELS 3 Zrotation Xrotation Yrotation
						JOINT RightArm
						{
							OFFSET -18.41580 0.00000 0.00000
							CHANNELS 3 Zrotation Xrotation Yrotation
							JOINT RightForeArm
							{
								OFFSET -29.11090 0.00000 0.00000
								CHANNELS 3 Zrotation Xrotation Yrotation
								JOINT RightHand
								{
									OFFSET -24.65040 0.00000 0.00000
									CHANNELS 3 Zrotation Xrotation Yrotation
									JOINT RightHandThumb1
									{
										OFFSET -5.35114 -0.85590 3.97906
										CHANNELS 3 Zrotation Xrotation Yrotation
										JOINT RightHandThumb2
										{
											OFFSET -4.52789 0.00000 0.00000
											CHANNELS 3 Zrotation Xrotation Yrotation
											JOINT RightHandThumb3
											{
												OFFSET -2.46976 0.00000 0.00000
												CHANNELS 3 Zrotation Xrotation Yrotation
												End site
												{
													OFFSET 0.00000 0.00000 0.00000
												}
											}
										}
									}
									JOINT RightHandIndex1
									{
										OFFSET -14.26970 0.00000 2.88139
										CHANNELS 3 Zrotation Xrotation Yrotation
										JOINT RightHandIndex2
										{
											OFFSET -5.48836 0.00000 0.00000
											CHANNELS 3 Zrotation Xrotation Yrotation
											JOINT RightHandIndex3
											{
												OFFSET -3.01859 0.00000 0.00000
												CHANNELS 3 Zrotation Xrotation Yrotation
												End site
												{
													OFFSET 0.00000 0.00000 0.00000
												}
											}
										}
									}
									JOINT RightHandMiddle1
									{
										OFFSET -14.26970 0.00000 -0.09147
										CHANNELS 3 Zrotation Xrotation Yrotation
										JOINT RightHandMiddle2
										{
											OFFSET -6.17441 0.00000 0.00000
											CHANNELS 3 Zrotation Xrotation Yrotation
											JOINT RightHandMiddle3
											{
												OFFSET -3.56743 0.00000 0.00000
												CHANNELS 3 Zrotation Xrotation Yrotation
												End site
												{
													OFFSET 0.00000 0.00000 0.00000
												}
											}
										}
									}
									JOINT RightHandRing1
									{
										OFFSET -12.69180 0.00000 -3.06433
										CHANNELS 3 Zrotation Xrotation Yrotation
										JOINT RightHandRing2
										{
											OFFSET -5.62556 0.00000 0.00000
											CHANNELS 3 Zrotation Xrotation Yrotation
											JOINT RightHandRing3
											{
												OFFSET -3.56744 0.00000 0.00000
												CHANNELS 3 Zrotation Xrotation Yrotation
												End site
												{
													OFFSET 0.00000 0.00000 0.00000
												}
											}
										}
									}
									JOINT RightHandPinky1
									{
										OFFSET -11.11390 0.00000 -6.03719
										CHANNELS 3 Zrotation Xrotation Yrotation
										JOINT RightHandPinky2
										{
											OFFSET -4.52789 0.00000 0.00000
											CHANNELS 3 Zrotation Xrotation Yrotation
											JOINT RightHandPinky3
											{
												OFFSET -2.46976 0.00000 0.00000
												CHANNELS 3 Zrotation Xrotation Yrotation
												End site
												{
													OFFSET 0.00000 0.00000 0.00000
												}
											}
										}
									}
								}
							}
						}
					}
					JOINT LeftShoulder
					{
						OFFSET 0.01000 7.91373 5.19711
						CHANNELS 3 Zrotation Xrotation Yrotation
						JOINT LeftArm
						{
							OFFSET 18.41580 0.00000 0.00000
							CHANNELS 3 Zrotation Xrotation Yrotation
							JOINT LeftForeArm
							{
								OFFSET 29.11090 0.00000 0.00000
								CHANNELS 3 Zrotation Xrotation Yrotation
								JOINT LeftHand
								{
									OFFSET 24.65040 0.00000 0.00000
									CHANNELS 3 Zrotation Xrotation Yrotation
									JOINT LeftHandThumb1
									{
										OFFSET 5.35114 -0.85590 3.97906
										CHANNELS 3 Zrotation Xrotation Yrotation
										JOINT LeftHandThumb2
										{
											OFFSET 4.52789 0.00000 0.00000
											CHANNELS 3 Zrotation Xrotation Yrotation
											JOINT LeftHandThumb3
											{
												OFFSET 2.46977 0.00000 0.00000
												CHANNELS 3 Zrotation Xrotation Yrotation
												End site
												{
													OFFSET 0.00000 0.00000 0.00000
												}
											}
										}
									}
									JOINT LeftHandIndex1
									{
										OFFSET 14.26970 0.00000 2.88139
										CHANNELS 3 Zrotation Xrotation Yrotation
										JOINT LeftHandIndex2
										{
											OFFSET 5.48836 0.00000 0.00000
											CHANNELS 3 Zrotation Xrotation Yrotation
											JOINT LeftHandIndex3
											{
												OFFSET 3.01859 0.00000 0.00000
												CHANNELS 3 Zrotation Xrotation Yrotation
												End site
												{
													OFFSET 0.00000 0.00000 0.00000
												}
											}
										}
									}
									JOINT LeftHandMiddle1
									{
										OFFSET 14.26970 0.00000 -0.09147
										CHANNELS 3 Zrotation Xrotation Yrotation
										JOINT LeftHandMiddle2
										{
											OFFSET 6.17440 0.00000 0.00000
											CHANNELS 3 Zrotation Xrotation Yrotation
											JOINT LeftHandMiddle3
											{
												OFFSET 3.56744 0.00000 0.00000
												CHANNELS 3 Zrotation Xrotation Yrotation
												End site
												{
													OFFSET 0.00000 0.00000 0.00000
												}
											}
										}
									}
									JOINT LeftHandRing1
									{
										OFFSET 12.69180 0.00000 -3.06433
										CHANNELS 3 Zrotation Xrotation Yrotation
										JOINT LeftHandRing2
										{
											OFFSET 5.62556 0.00000 0.00000
											CHANNELS 3 Zrotation Xrotation Yrotation
											JOINT LeftHandRing3
											{
												OFFSET 3.56744 0.00000 0.00000
												CHANNELS 3 Zrotation Xrotation Yrotation
												End site
												{
													OFFSET 0.00000 0.00000 0.00000
												}
											}
										}
									}
									JOINT LeftHandPinky1
									{
										OFFSET 11.11390 0.00000 -6.03719
										CHANNELS 3 Zrotation Xrotation Yrotation
										JOINT LeftHandPinky2
										{
											OFFSET 4.52789 0.00000 0.00000
											CHANNELS 3 Zrotation Xrotation Yrotation
											JOINT LeftHandPinky3
											{
												OFFSET 2.46976 0.00000 0.00000
												CHANNELS 3 Zrotation Xrotation Yrotation
												End site
												{
													OFFSET 0.00000 0.00000 0.00000
												}
											}
										}
									}
								}
							}
						}
					}
					JOINT pCube4
					{
						OFFSET 0.00000 10.91090 1.10792
						CHANNELS 3 Zrotation Xrotation Yrotation
						End site
						{
							OFFSET 0.00000 0.00000 0.00000
						}
					}
				}
			}
		}
	}
	JOINT RightUpLeg
	{
		OFFSET -9.98441 0.00000 0.00000
		CHANNELS 3 Zrotation Xrotation Yrotation
		JOINT RightLeg
		{
			OFFSET 0.00000 -42.11790 0.00000
			CHANNELS 3 Zrotation Xrotation Yrotation
			JOINT RightFoot
			{
				OFFSET 0.00000 -45.00020 -0.00001
				CHANNELS 3 Zrotation Xrotation Yrotation
				JOINT RightForeFoot
				{
					OFFSET 0.00000 -3.74820 0.00000
					CHANNELS 3 Zrotation Xrotation Yrotation
					JOINT RightToeBase
					{
						OFFSET 0.00000 0.06325 14.43120
						CHANNELS 3 Zrotation Xrotation Yrotation
						End site
						{
							OFFSET 0.00000 0.00000 0.00000
						}
					}
				}
			}
		}
	}
	JOINT LeftUpLeg
	{
		OFFSET 9.98441 0.00000 0.00000
		CHANNELS 3 Zrotation Xrotation Yrotation
		JOINT LeftLeg
		{
			OFFSET 0.00000 -42.11800 0.00000
			CHANNELS 3 Zrotation Xrotation Yrotation
			JOINT LeftFoot
			{
				OFFSET 0.00000 -45.00070 0.00000
				CHANNELS 3 Zrotation Xrotation Yrotation
				JOINT LeftForeFoot
				{
					OFFSET 0.00000 -3.74824 0.00000
					CHANNELS 3 Zrotation Xrotation Yrotation
					JOINT LeftToeBase
					{
						OFFSET 0.00000 0.06325 14.43110
						CHANNELS 3 Zrotation Xrotation Yrotation
						End site
						{
							OFFSET 0.00000 0.00000 0.00000
						}
					}
				}
			}
		}
	}
}
MOTION
Frames: 4
Frame Time: 0.050000
-0.0329173306460911 0.03794476726911531 -0.042202781653781725 -0.04677730216393955 0.005582640818584748 -0.028948817689788506 -2.6203357454090916 0.13938992693160895 -0.8418535044755977 -0.8256409408029989 3.5975932059659668 0.34954421552968146 -1.3710865379211268 -2.4571621106526154 -1.0543110002025256 0.13591197883900882 -0.11320070827470677 -0.8565359668026367 1.1500298654837953 14.83133148434805 -2.9608613206919023 0.3526683022107776 0.7212596790838263 -8.262877599144216 1.3464553164359272 -14.22794654410056 -0.6806695886513455 -8.711402779152122 2.8429104174669915 -15.356223640603618 72.56132980016825 -17.74904888499574 21.56801945745756 38.522572439386266 9.162407592117574 97.49486847497546 16.9569826213491 -0.4953881131520781 -2.555760135201836 4.559088027010481 -0.10608075926966642 -1.5846124070447796 -0.0217581645431707 -0.04802375880289875 -56.235087317383716 0.0320568822694757 0.02685543698304757 -56.20451399849064 -38.77431685770786 -0.03390724423426154 -0.04009321140977758 -0.02627222649491761 0.030185030471448885 -0.0385367854681019 -0.011180280538515918 0.017722220119299102 0.03310831982289009 -36.702307626793065 -0.010320756699622798 0.044860642994486416 0.01744077129218194 -0.0016496914827595942 -0.0349600317904897 -0.04086987989138759 0.04211866630469871 0.0481659949729643 -19.765934881592695 0.01082564071953535 0.030425653522143836 0.028604797479161018 0.04590157631862359 -0.010746972694556765 -0.012231249849295498 0.0162623145860454 0.020724029557672472 24.042911882453375 0.010137211308764044 0.02861589389709658 28.847157429079246 -0.04174809948386659 -0.03195918236362005 28.8478279193117 0.012960159225478543 -0.01601818386124733 7.309094031277245 1.9229511592120776 12.755109953296678 -71.8997159051888 9.219987670812136 -13.43226620476225 -50.5557074414111 13.265459795529763 -105.14519085555165 -5.931714017456773 0.9557551971779572 -3.8522554438528243 -0.4385934988438257 0.07800836567153405 -8.114303468774821 0.010537547714331708 0.04660486384138269 44.54255191417228 0.017726821214208384 -0.03371291026914512 44.579321105042524 12.493142603706174 -0.023913060041699234 -0.04402133895492851 -0.022660724058840016 0.04298660159940105 -0.01892938109590121 -0.03012163030860517 0.028994847525105907 -0.042396907576165176 11.119854301930161 0.005511619267538477 -0.03591046776498231 0.048763618933198256 -0.02532992897978043 0.011744288068744738 -0.009681633467082812 -0.027760175486012038 -0.028283647790576256 4.734604455873602 0.029529784993811432 -0.047203526726735 0.021494186504617794 0.003330071659175017 0.014009230152543484 0.015699296092942412 0.03305858874294563 0.0377958460106792 -5.580110249006886 0.03579260286893574 -0.00683102212464404 -6.697786331064667 -0.022322702244036135 0.025807370111173775 -6.761002600012543 0.025920963264522468 -0.03991109362842388 -0.04629632010528425 -0.023134018754061663 0.028144376941044776 8.004997380596713 3.532586468841915 -19.213052658069333 -0.0010623227395802869 10.415922216001421 0.03114219229026449 -5.607749901959347 -15.639957766385018 3.1507483724943253 -0.04510581605094093 0.018872531933644597 0.044999881558711506 0.017094508113809324 4.665433764213722 -0.0014526338040447904 12.46365592204918 -8.25563003216452 6.886316656484301 -0.031527483790070546 46.39095939246985 0.0015004576404787106 -4.322370855031638 -14.789075686952582 -3.8029396282903725 0.02035989995419772 0.005059115267835414 0.0039014117313197314 -0.04823009638782226 -10.700605003714534 -0.04370183204946139 
0.013244966488276234 -0.025619116467497594 -0.03350709251709285 0.010038645832072597 -0.0028455852799845207 0.005695181931020759 -2.748934628432876 0.08043044569669675 -0.8422758024334532 -0.8665294104288593 3.5369296790255094 0.35402159133221933 -1.4260586588648683 -2.4953717983597654 -0.9060048070585769 0.0417443442020051 -0.1511931695017068 -0.8207515530973618 1.279754827639331 15.125451171394813 -2.9514033399144592 0.3999651178964801 0.7430295294627844 -8.22935363087542 1.3760754918759428 -14.09784519167609 -0.6650335998381606 -9.374626455958726 3.022617783299209 -15.398733137835375 71.29301840018506 -21.03418365403458 25.721726984660833 36.808850545535165 7.763553892109288 98.47466219226119 16.14370000400112 -0.5291010521288017 -1.6671364182629167 4.506747270227267 -0.14510808802736075 -1.58233643039472 -0.030038994857812466 0.008397209021081545 -56.27312678384522 -0.013299513908168659 0.04875577386954499 -56.23059168552711 -38.7690192980086 -0.01636724476409907 -0.04121075928277454 0.007800833970610477 -0.029841271601795148 0.027133788046400594 0.03416396404154587 -0.005829120743713515 -0.007455399606838328 -36.71392700845353 -0.03873342370620217 -0.03743622839428599 0.04504532538619537 -0.009773835056656608 0.008241557125284073 0.03257748186820389 0.020616686470551194 0.02203719388511172 -19.793396431188725 -0.027169759833945435 -0.013041495533334831 0.04066595058505097 -0.03243907698736417 -0.029784984241574955 0.001584725045195316 0.0005472100473483325 -0.03686747143643233 24.077794968699358 -0.03324472662735075 -0.018559407620309946 28.845671096055458 -0.005985234445135608 0.03245021320278537 28.899173125646456 -0.01698920896296582 -0.03483209883504897 7.523204110805214 1.881292012782055 12.773427035148364 -70.92131922074579 8.909733977438846 -14.514849974389271 -44.6908734693686 11.22681898670895 -103.84692348263567 -3.5752014755492163 1.7382789044626636 -4.871175806092997 -0.4838398543958456 0.06055311428496394 -8.150961117298266 0.00015518654894731417 0.016711474982899873 44.572668550832674 0.031130210101535667 -0.02427469183152615 44.59368819489579 12.461610072361863 0.02263194595345855 0.036640582835775676 -0.035173319579494676 0.018138701608374837 0.02753439987963302 0.014010227382821322 -0.010141929856769788 -0.03458686772634145 11.141062812158127 -0.04722029571389361 -0.03411196097557292 -0.014596463815228562 -0.016133185807171997 0.0177951598814794 -0.014697909045258207 -0.040136380566417044 0.02034244570914902 4.754021532049352 0.01069067578374386 -0.04606346401455106 -0.019717009100004648 -0.04076861103420694 -0.015793278887253955 0.039746799561761414 0.030760322145834133 -0.017005306074337923 -5.552341215856077 -0.010356416757379774 0.019070351257115866 -6.750620195173863 0.021646015759994204 0.03722478659707379 -6.6719097818687505 -0.029903310900847902 -0.02876149377118434 -0.010790727091908077 -0.042341405849764785 0.0033249656261655105 8.002734507933718 3.5172301947035405 -19.237594670984905 -0.043018083988349436 10.365675937693547 -0.005058784597623545 -5.606524796077921 -15.695299150768676 3.1606137753584527 0.00025510481540373734 0.028679062076501123 -0.00017308499201058077 0.0291094630469722 4.719285649913855 0.027558007571169604 12.433654100073277 -8.274467587408607 6.889880361214234 0.03146334903152628 46.380810662861364 -0.033802652476875424 -4.320227344451121 -14.739588258215974 -3.8152276966051493 1.4215505541776952e-05 0.03878263507786869 0.01692456858651479 -0.0049254874511327085 -10.712543158225888 0.008595466806247808 
-0.004962983989338414 -0.006678125112875681 0.012356400209861097 -0.014327966888225161 -0.049594133468247925 0.015646203640963616 -2.8725603391677588 -0.08433253456412637 -0.8270202413677515 -0.9410093959511454 3.563453956219011 0.39339659973723273 -1.5209524216554318 -2.599137512149418 -0.742823596528169 0.058360875930946646 -0.22996916218437582 -0.7795341816259499 1.3185950999837976 15.34795226319725 -2.9351035865669513 0.4073369101600083 0.8485838630133173 -8.367101799866356 1.4300854432769985 -14.049792169637662 -0.7267608916798226 -9.988393769724485 3.1261094133897007 -15.26889890203087 69.61525458884061 -23.850754563329748 29.8624562774516 35.30635588100698 6.589263057609091 99.1452257865063 15.637463633188467 -0.5515617114484394 -0.9144840647729544 4.483006817236222 -0.10153046186570285 -1.5960611646477756 -0.04888312537259764 -0.04380349749372552 -56.22491747875066 0.039548303510307935 -0.005503086808422318 -56.2008059510124 -38.802096273296826 0.03434206074727867 -0.044444694449836286 -0.021527843916213447 -0.04828767928133698 0.02562998292291169 0.001888316351615848 0.029106654260266075 -0.023996506649803885 -36.72611929092665 0.023091669537698666 0.008707738232589695 0.003675471364288207 -0.0051936991308505895 -0.0012219585421805541 0.009367267266271686 0.020193465425343008 0.03435261393962389 -19.712179491271243 -0.019563078523954162 0.03902302941904792 -0.025699899622715905 -0.019744709894229575 0.0402844662231826 0.039147114173631016 0.0016703327039916613 0.003064697844620395 24.06781084947399 -0.03873848586774077 0.013259029084541907 28.857208448866942 -0.01563358049287103 -0.019216488836091984 28.868038370494357 -0.023915194150081014 0.01859541348953965 7.6138206955610315 1.9129818608534446 12.719264345602342 -69.66706176976719 8.994679486053576 -15.484058023544552 -39.18916233611548 8.762089931668342 -102.52902427133067 -1.4060945788842085 2.5016268709519447 -5.755149220107408 -0.4776281958213108 0.03407969659498934 -8.113490883625829 -0.035646578240474756 -0.009482348124236636 44.53912020307179 0.02685205712715273 -0.029302107832839354 44.54823514315738 12.477372628192594 0.020165344265000558 -0.03752792253144959 -0.021893303165051135 0.04847559631837419 -0.03418032284832281 0.032406311160218505 -0.02566677829799735 0.0007623604377527482 11.113864532775384 -0.010159745933395553 -0.035918148248663954 0.0025635584466475727 0.015453763718651542 -0.004415732825658529 0.014491669600855808 0.014866345092456091 0.03405353713547748 4.791162586024127 0.02180923695772135 -0.015668685687544367 -0.024900855368389634 0.03860976708695468 0.030360962314384253 0.017706236073274064 -0.038815500907953715 -0.0077512438610789665 -5.60601003396592 -0.004644479345946138 -0.0101831947968153 -6.684310999509032 0.018815047676399164 0.008967931146576315 -6.695450321434119 0.027197324171584842 0.04022178025290517 0.033173267245424416 0.04911570921337775 0.004345021776443301 8.045061400405363 3.52873204960231 -19.2127522838699 -0.00036866616344137206 10.414561067980486 0.02729733138117854 -5.668836082516249 -15.666707944189417 3.1578130590945603 0.009509635708534811 -0.017344815281609076 -0.021600429915201315 -0.01596834299130963 4.685651532078003 0.026034580950146182 12.447538817471736 -8.234139656632095 6.864658293546531 -0.03399122443469402 46.42512594792676 0.014870758537138394 -4.344092966307639 -14.755412947421085 -3.7904864063939163 -0.010696249988757943 -0.045261211718339675 -0.0024452558462888766 -0.0001729038062427833 -10.773098988779038 -0.014586755211720651 
0.0021641679530982087 -0.045420765715265043 -0.047520396198818815 -0.03835557082984964 0.03781783689757246 -0.03813157274955151 -3.028332720334289 -0.14246227611400417 -0.7583016275131578 -0.961125332011943 3.610588042463134 0.36908643435370725 -1.5338358926000377 -2.6498159490847986 -0.6129704296026748 -0.007199169316967631 -0.17911093379258297 -0.7381560261360421 1.304425590876671 15.606450847719923 -2.9191184785256543 0.4225913723311698 0.909582016889596 -8.376283363803621 1.4189836701936904 -13.994514038321437 -0.7304262281878251 -10.517657200300892 3.248164427119793 -15.096418879972495 67.42740854686474 -25.05458252624243 34.086602465318094 32.10797171522385 5.070330342405061 99.93955235540173 14.96066536848938 -0.6154066718698651 -0.4460622783789244 4.566627685856924 -0.0810768804956236 -1.6377236426641288 -0.048138363767759075 -0.029242621549304227 -56.188762426690836 -0.002980852505155013 -0.019719349551414574 -56.217024188181504 -38.72149942255429 -0.013711034418519747 0.016256479642211174 0.011121660376477866 0.0058777938979411104 0.020472424772531368 0.01878287776890759 0.021537089834430614 0.01972884142915505 -36.70702430195902 -0.005182910099425282 0.043438803330008366 0.040001948461518576 -0.03521191431810804 -0.011318722404657673 0.0004530572174141637 0.01642308011729321 0.014885312988645543 -19.750421574518032 0.046928047655491745 -0.01645111018877965 -0.0013138183305804975 -0.031344338836017345 -0.007891672670380106 0.03671885791182767 -0.030790512739869363 -0.042600335533868855 24.065788003364155 -0.036986123730557006 0.04499850579238132 28.836430383472173 0.018882007174204275 -0.027298769442941517 28.88033252685541 0.0168233236778827 0.015164867406674432 7.8784879022509084 1.8701349700367715 12.6439666889272 -68.37815659418325 9.205745469610427 -17.025948653706347 -32.62118089577399 5.716607634561159 -101.44421435395137 0.7036058049820922 2.8383813735522607 -6.256118891507855 -0.4451082706079257 0.09765728735682197 -8.168426535208678 0.014290566466744432 0.02905671943491394 44.533836306493356 0.006357934012364177 0.02748265383478084 44.53966216444905 12.427232901144782 0.009254700807535935 -0.016428156532547283 -0.014663527071850129 -0.021760109905936624 -0.025204904999436187 0.033182515191871875 0.033595791195656755 -0.01312816049359105 11.133485979497241 -0.04853609406184179 0.049348331218377575 -0.029207478442061032 0.04745795361613191 0.04480070310087445 -0.024046151473777234 -0.03825625397143235 -0.010382053866300431 4.727876251103964 0.01384166292093299 -0.024472924469300085 -0.01109035288038891 -0.023233125929332913 0.010298864351379864 -0.01831352620623562 -0.03290486993663935 -0.03820941782903211 -5.574504507954584 0.021876995509006174 -0.025810280319930413 -6.717099932886779 -0.02532483604658532 0.006334815788638467 -6.705083990686083 0.029158024806017393 0.03180150742629301 0.02183136838216712 -0.024258820886939446 0.03417601136186513 8.061815504032634 3.5089987964537066 -19.245088234306923 -0.0335327887982431 10.377396916384683 0.01870139109862384 -5.615147644367402 -15.619910420005777 3.212650175522125 -0.0085876513732075 0.008782909113989115 -0.04109160131137326 -0.027791315429179387 4.64853659555019 0.0063170125650885795 12.437270826635444 -8.241123461643339 6.917922192546348 0.022731558493625563 46.41359800605825 -0.04663095357232046 -4.37168074076187 -14.71985517695268 -3.8711184230860978 -0.0008701934239798738 -0.016913526127873783 -0.04300957517537344 -0.03916474281580899 -10.72380903258235 -0.017193800778956242 
